<svg version="1.1" id="Layer_1" xmlns="http://www.w3.org/2000/svg" xmlns:xlink="http://www.w3.org/1999/xlink" x="0px" y="0px"
	 width="100%" viewBox="0 0 640 640" enable-background="new 0 0 640 640" xml:space="preserve">
<path fill="#FEFEFE" opacity="1.000000" stroke="none" 
	d="
M286.000000,1.000001 
	C309.020905,1.000000 332.041779,1.000000 355.228699,1.372602 
	C359.316345,2.495977 363.257507,3.157693 367.156158,4.013087 
	C383.192749,7.531640 399.429352,10.359567 415.195465,14.838593 
	C439.499573,21.743191 462.479523,32.060738 484.225311,45.016155 
	C505.378479,57.618530 525.052307,72.198463 542.749084,89.335045 
	C549.281494,95.660667 555.582886,102.268730 561.522034,109.151497 
	C568.314575,117.023262 574.876709,125.131409 581.024780,133.513977 
	C594.293030,151.604660 605.990479,170.715408 614.110229,191.678619 
	C620.639893,208.536499 626.912048,225.586166 631.730469,242.985001 
	C635.423096,256.318665 636.643982,270.334320 639.072449,284.027466 
	C639.205078,284.775391 640.334534,285.346558 641.000000,286.000000 
	C641.000000,309.020905 641.000000,332.041779 640.627441,355.228699 
	C639.504028,359.316376 638.842285,363.257538 637.986877,367.156250 
	C634.468323,383.192841 631.640381,399.429382 627.161316,415.195496 
	C620.256775,439.499573 609.939209,462.479523 596.983887,484.225311 
	C584.381531,505.378448 569.801575,525.052246 552.665100,542.748901 
	C546.339478,549.281311 539.731384,555.582764 532.848633,561.521912 
	C524.976868,568.314453 516.868652,574.876648 508.486084,581.024719 
	C490.395477,594.293030 471.284698,605.990479 450.321472,614.110229 
	C433.463531,620.639832 416.413849,626.912048 399.015015,631.730469 
	C385.681366,635.423096 371.665680,636.643860 357.972534,639.072388 
	C357.224579,639.205017 356.653442,640.334534 356.000000,641.000000 
	C332.979095,641.000000 309.958221,641.000000 286.771301,640.627441 
	C282.683655,639.504028 278.742493,638.842224 274.843811,637.986816 
	C258.807251,634.468262 242.570633,631.640442 226.804520,627.161438 
	C202.500366,620.256958 179.520462,609.939148 157.774597,596.983826 
	C136.621353,584.381531 116.947594,569.801392 99.250877,552.664795 
	C92.718460,546.339172 86.417023,539.731140 80.477921,532.848389 
	C73.685387,524.976562 67.123192,516.868469 60.975109,508.485962 
	C47.706802,490.395386 36.009548,471.284515 27.889759,450.321350 
	C21.360094,433.463470 15.087962,416.413818 10.269545,399.015015 
	C6.576918,385.681366 5.356054,371.665741 2.927608,357.972595 
	C2.794956,357.224609 1.665473,356.653473 0.999999,356.000000 
	C1.000000,332.979095 1.000000,309.958221 1.372603,286.771301 
	C2.495979,282.683746 3.157728,278.742737 4.013087,274.844177 
	C7.531596,258.807526 10.359377,242.570892 14.838434,226.804749 
	C21.743057,202.500671 32.060673,179.520737 45.016125,157.774948 
	C57.618515,136.621765 72.198479,116.947922 89.334946,99.251068 
	C95.660530,92.718628 102.268639,86.417213 109.151428,80.478073 
	C117.023201,73.685547 125.131310,67.123337 133.513885,60.975292 
	C151.604538,47.707039 170.715317,36.009605 191.678543,27.889824 
	C208.536423,21.360170 225.586090,15.087982 242.984894,10.269544 
	C256.318573,6.576909 270.334259,5.356056 284.027405,2.927613 
	C284.775391,2.794961 285.346527,1.665478 286.000000,1.000001 
M210.007034,287.500000 
	C210.005951,252.337891 210.007828,217.175781 209.997070,182.013672 
	C209.996353,179.681961 210.056671,177.334412 209.822479,175.021149 
	C208.178513,158.782578 191.477600,149.944992 177.726685,158.184296 
	C169.798691,162.934631 167.192108,170.524033 167.197235,179.464584 
	C167.249420,270.621582 167.230011,361.778625 167.232010,452.935638 
	C167.232025,453.935486 167.223251,454.936432 167.264404,455.934967 
	C167.717300,466.923340 175.337799,475.658691 185.655640,477.028778 
	C196.416092,478.457672 205.644165,472.543213 209.050552,461.858063 
	C210.261429,458.059723 211.078232,454.137115 212.122116,450.283997 
	C220.166565,420.590729 230.339081,391.792450 248.245926,366.365662 
	C257.680420,352.969177 269.381165,343.113342 285.921295,338.590668 
	C298.137238,335.250397 310.160156,330.023926 321.177979,323.728271 
	C343.975098,310.701874 356.270203,290.827148 356.047455,263.900787 
	C355.926178,249.239426 356.321167,234.574158 356.441040,219.910309 
	C356.496399,213.139786 356.450500,206.368423 356.450500,199.364182 
	C359.101929,199.364182 360.587524,199.208405 362.031586,199.387619 
	C382.521088,201.930450 402.996094,204.593445 423.497833,207.031799 
	C427.519623,207.510117 429.085236,208.957642 429.169495,213.233002 
	C429.776825,244.045883 431.236359,274.852722 431.284363,305.663239 
	C431.350342,347.974152 430.342468,390.286041 429.987640,432.599121 
	C429.945282,437.652374 428.687866,439.977203 423.173370,440.343018 
	C411.218079,441.135956 399.332581,443.007568 387.375824,443.743958 
	C377.981934,444.322479 368.523926,443.860077 358.717896,443.860077 
	C358.586029,442.036560 358.295288,439.734467 358.274231,437.429932 
	C358.179993,427.098663 358.044220,416.765564 358.147461,406.435364 
	C358.273987,393.774445 358.780365,381.116364 358.825287,368.455994 
	C358.858856,358.996368 354.877686,351.620697 345.923615,347.757385 
	C333.316498,342.317993 319.010895,349.713501 316.982635,363.301056 
	C315.638031,372.308533 315.527527,381.568878 315.618378,390.708527 
	C315.846771,413.681854 315.848480,436.689453 317.197357,459.609344 
	C318.249359,477.485077 328.656891,486.531555 346.549438,487.148224 
	C356.691559,487.497803 366.871460,487.591309 377.006073,487.150421 
	C400.812592,486.114777 424.625519,484.640594 447.891388,479.061249 
	C462.868378,475.469635 469.737396,467.516418 471.010681,452.155212 
	C472.385803,435.564819 473.579346,418.910675 473.711060,402.275299 
	C474.069916,356.953247 474.122284,311.623688 473.696350,266.302734 
	C473.486664,243.993011 472.185883,221.682648 470.940887,199.397034 
	C469.937531,181.436996 463.237701,173.232086 445.923553,168.362656 
	C438.252991,166.205414 430.377258,164.396072 422.473694,163.519592 
	C397.332947,160.731583 372.137543,158.433289 346.956024,156.021225 
	C344.652496,155.800583 342.290771,156.031647 339.967041,156.202469 
	C325.119324,157.294022 315.722839,166.197296 315.179230,181.074326 
	C314.157318,209.042221 313.658539,237.031082 313.163544,265.015167 
	C313.022980,272.961487 310.078918,279.160797 303.849152,283.955048 
	C295.114258,290.677124 285.143250,294.900482 274.584991,297.454102 
	C252.842773,302.712646 235.358185,314.396729 221.234940,331.458099 
	C217.688629,335.742157 214.281845,340.141754 210.007004,345.494965 
	C210.007004,325.661682 210.007004,307.080841 210.007034,287.500000 
z"/>
<path fill="#000000" opacity="1.000000" stroke="none" 
	d="
M285.531342,1.000001 
	C285.346527,1.665478 284.775391,2.794961 284.027405,2.927613 
	C270.334259,5.356056 256.318573,6.576909 242.984894,10.269544 
	C225.586090,15.087982 208.536423,21.360170 191.678543,27.889824 
	C170.715317,36.009605 151.604538,47.707039 133.513885,60.975292 
	C125.131310,67.123337 117.023201,73.685547 109.151428,80.478073 
	C102.268639,86.417213 95.660530,92.718628 89.334946,99.251068 
	C72.198479,116.947922 57.618515,136.621765 45.016125,157.774948 
	C32.060673,179.520737 21.743057,202.500671 14.838434,226.804749 
	C10.359377,242.570892 7.531596,258.807526 4.013087,274.844177 
	C3.157728,278.742737 2.495979,282.683746 1.372603,286.302612 
	C1.000000,191.072937 1.000000,96.145874 1.000000,1.000000 
	C95.687447,1.000000 190.375061,1.000000 285.531342,1.000001 
z"/>
<path fill="#000000" opacity="1.000000" stroke="none" 
	d="
M641.000000,285.531342 
	C640.334534,285.346558 639.205078,284.775391 639.072449,284.027466 
	C636.643982,270.334320 635.423096,256.318665 631.730469,242.985001 
	C626.912048,225.586166 620.639893,208.536499 614.110229,191.678619 
	C605.990479,170.715408 594.293030,151.604660 581.024780,133.513977 
	C574.876709,125.131409 568.314575,117.023262 561.522034,109.151497 
	C555.582886,102.268730 549.281494,95.660667 542.749084,89.335045 
	C525.052307,72.198463 505.378479,57.618530 484.225311,45.016155 
	C462.479523,32.060738 439.499573,21.743191 415.195465,14.838593 
	C399.429352,10.359567 383.192749,7.531640 367.156158,4.013087 
	C363.257507,3.157693 359.316345,2.495977 355.697388,1.372602 
	C450.927032,1.000000 545.854065,1.000000 641.000000,1.000000 
	C641.000000,95.687447 641.000000,190.375061 641.000000,285.531342 
z"/>
<path fill="#000000" opacity="1.000000" stroke="none" 
	d="
M0.999999,356.468658 
	C1.665473,356.653473 2.794956,357.224609 2.927608,357.972595 
	C5.356054,371.665741 6.576918,385.681366 10.269545,399.015015 
	C15.087962,416.413818 21.360094,433.463470 27.889759,450.321350 
	C36.009548,471.284515 47.706802,490.395386 60.975109,508.485962 
	C67.123192,516.868469 73.685387,524.976562 80.477921,532.848389 
	C86.417023,539.731140 92.718460,546.339172 99.250877,552.664795 
	C116.947594,569.801392 136.621353,584.381531 157.774597,596.983826 
	C179.520462,609.939148 202.500366,620.256958 226.804520,627.161438 
	C242.570633,631.640442 258.807251,634.468262 274.843811,637.986816 
	C278.742493,638.842224 282.683655,639.504028 286.302643,640.627441 
	C191.072937,641.000000 96.145874,641.000000 1.000000,641.000000 
	C1.000000,546.312561 1.000000,451.624939 0.999999,356.468658 
z"/>
<path fill="#000000" opacity="1.000000" stroke="none" 
	d="
M356.468658,641.000000 
	C356.653442,640.334534 357.224579,639.205017 357.972534,639.072388 
	C371.665680,636.643860 385.681366,635.423096 399.015015,631.730469 
	C416.413849,626.912048 433.463531,620.639832 450.321472,614.110229 
	C471.284698,605.990479 490.395477,594.293030 508.486084,581.024719 
	C516.868652,574.876648 524.976868,568.314453 532.848633,561.521912 
	C539.731384,555.582764 546.339478,549.281311 552.665100,542.748901 
	C569.801575,525.052246 584.381531,505.378448 596.983887,484.225311 
	C609.939209,462.479523 620.256775,439.499573 627.161316,415.195496 
	C631.640381,399.429382 634.468323,383.192841 637.986877,367.156250 
	C638.842285,363.257538 639.504028,359.316376 640.627441,355.697357 
	C641.000000,450.927063 641.000000,545.854126 641.000000,641.000000 
	C546.312561,641.000000 451.624939,641.000000 356.468658,641.000000 
z"/>
<path fill="#040404" opacity="1.000000" stroke="none" 
	d="
M210.007019,288.000000 
	C210.007004,307.080841 210.007004,325.661682 210.007004,345.494965 
	C214.281845,340.141754 217.688629,335.742157 221.234940,331.458099 
	C235.358185,314.396729 252.842773,302.712646 274.584991,297.454102 
	C285.143250,294.900482 295.114258,290.677124 303.849152,283.955048 
	C310.078918,279.160797 313.022980,272.961487 313.163544,265.015167 
	C313.658539,237.031082 314.157318,209.042221 315.179230,181.074326 
	C315.722839,166.197296 325.119324,157.294022 339.967041,156.202469 
	C342.290771,156.031647 344.652496,155.800583 346.956024,156.021225 
	C372.137543,158.433289 397.332947,160.731583 422.473694,163.519592 
	C430.377258,164.396072 438.252991,166.205414 445.923553,168.362656 
	C463.237701,173.232086 469.937531,181.436996 470.940887,199.397034 
	C472.185883,221.682648 473.486664,243.993011 473.696350,266.302734 
	C474.122284,311.623688 474.069916,356.953247 473.711060,402.275299 
	C473.579346,418.910675 472.385803,435.564819 471.010681,452.155212 
	C469.737396,467.516418 462.868378,475.469635 447.891388,479.061249 
	C424.625519,484.640594 400.812592,486.114777 377.006073,487.150421 
	C366.871460,487.591309 356.691559,487.497803 346.549438,487.148224 
	C328.656891,486.531555 318.249359,477.485077 317.197357,459.609344 
	C315.848480,436.689453 315.846771,413.681854 315.618378,390.708527 
	C315.527527,381.568878 315.638031,372.308533 316.982635,363.301056 
	C319.010895,349.713501 333.316498,342.317993 345.923615,347.757385 
	C354.877686,351.620697 358.858856,358.996368 358.825287,368.455994 
	C358.780365,381.116364 358.273987,393.774445 358.147461,406.435364 
	C358.044220,416.765564 358.179993,427.098663 358.274231,437.429932 
	C358.295288,439.734467 358.586029,442.036560 358.717896,443.860077 
	C368.523926,443.860077 377.981934,444.322479 387.375824,443.743958 
	C399.332581,443.007568 411.218079,441.135956 423.173370,440.343018 
	C428.687866,439.977203 429.945282,437.652374 429.987640,432.599121 
	C430.342468,390.286041 431.350342,347.974152 431.284363,305.663239 
	C431.236359,274.852722 429.776825,244.045883 429.169495,213.233002 
	C429.085236,208.957642 427.519623,207.510117 423.497833,207.031799 
	C402.996094,204.593445 382.521088,201.930450 362.031586,199.387619 
	C360.587524,199.208405 359.101929,199.364182 356.450500,199.364182 
	C356.450500,206.368423 356.496399,213.139786 356.441040,219.910309 
	C356.321167,234.574158 355.926178,249.239426 356.047455,263.900787 
	C356.270203,290.827148 343.975098,310.701874 321.177979,323.728271 
	C310.160156,330.023926 298.137238,335.250397 285.921295,338.590668 
	C269.381165,343.113342 257.680420,352.969177 248.245926,366.365662 
	C230.339081,391.792450 220.166565,420.590729 212.122116,450.283997 
	C211.078232,454.137115 210.261429,458.059723 209.050552,461.858063 
	C205.644165,472.543213 196.416092,478.457672 185.655640,477.028778 
	C175.337799,475.658691 167.717300,466.923340 167.264404,455.934967 
	C167.223251,454.936432 167.232025,453.935486 167.232010,452.935638 
	C167.230011,361.778625 167.249420,270.621582 167.197235,179.464584 
	C167.192108,170.524033 169.798691,162.934631 177.726685,158.184296 
	C191.477600,149.944992 208.178513,158.782578 209.822479,175.021149 
	C210.056671,177.334412 209.996353,179.681961 209.997070,182.013672 
	C210.007828,217.175781 210.005951,252.337891 210.007019,288.000000 
z"/>
</svg>